<?xml version="1.0" encoding="utf-8"?>
<!-- Generator: Adobe Illustrator 24.0.1, SVG Export Plug-In . SVG Version: 6.00 Build 0)  -->
<svg version="1.1" id="Camada_1" xmlns="http://www.w3.org/2000/svg" xmlns:xlink="http://www.w3.org/1999/xlink" x="0px" y="0px"
	 viewBox="0 0 210.9 44.4" style="enable-background:new 0 0 210.9 44.4;" xml:space="preserve">
<style type="text/css">
	.st0{enable-background:new    ;}
	.st1{fill:#FFFFFF;}
</style>
<title>Logo</title>
<g id="Camada_2_1_">
	<g id="Camada_1-2">
		<g class="st0">
			<path class="st1" d="M7.6,14.8L13,30.2l5.4-15.3h5.7V36h-4.4v-5.8l0.4-10L14.5,36h-3L5.8,20.2l0.4,10V36H1.9V14.8H7.6z"/>
			<path class="st1" d="M40.7,26.8h-8.4v5.7h9.8V36H28V14.8h14.1v3.5h-9.8v5h8.4V26.8z"/>
			<path class="st1" d="M55.7,30.4c0-0.8-0.3-1.5-0.9-1.9c-0.6-0.4-1.6-0.9-3.1-1.4c-1.5-0.5-2.7-1-3.6-1.4c-2.4-1.3-3.6-3-3.6-5.2
				c0-1.1,0.3-2.2,1-3.1c0.6-0.9,1.6-1.6,2.8-2.1s2.6-0.8,4.1-0.8c1.5,0,2.9,0.3,4,0.8c1.2,0.5,2.1,1.3,2.8,2.3c0.7,1,1,2.1,1,3.4
				h-4.4c0-1-0.3-1.7-0.9-2.3c-0.6-0.5-1.5-0.8-2.6-0.8c-1.1,0-1.9,0.2-2.5,0.7s-0.9,1-0.9,1.8c0,0.7,0.3,1.3,1,1.7
				c0.7,0.5,1.7,0.9,3.1,1.3c2.5,0.7,4.3,1.7,5.4,2.8c1.1,1.1,1.7,2.5,1.7,4.1c0,1.8-0.7,3.3-2.1,4.3c-1.4,1-3.2,1.6-5.6,1.6
				c-1.6,0-3.1-0.3-4.4-0.9s-2.4-1.4-3.1-2.4c-0.7-1-1.1-2.2-1.1-3.6h4.4c0,2.3,1.4,3.5,4.2,3.5c1,0,1.8-0.2,2.4-0.6
				S55.7,31.2,55.7,30.4z"/>
		</g>
		<g class="st0">
			<path class="st1" d="M80.5,36h-4.4v-9.1h-8.5V36h-4.4V14.8h4.4v8.6h8.5v-8.6h4.4V36z"/>
		</g>
		<g class="st0">
			<path class="st1" d="M96.3,31.6h-7.6L87.2,36h-4.6l7.9-21.2h4l7.9,21.2h-4.6L96.3,31.6z M89.9,28.1h5.3l-2.7-7.9L89.9,28.1z"/>
		</g>
		<g class="st0">
			<path class="st1" d="M121,28.9c-0.2,2.3-1,4.1-2.5,5.4c-1.5,1.3-3.5,2-6,2c-2.7,0-4.8-0.9-6.4-2.7c-1.6-1.8-2.3-4.3-2.3-7.5v-1.3
				c0-2,0.4-3.8,1.1-5.4c0.7-1.5,1.7-2.7,3.1-3.6c1.3-0.8,2.9-1.2,4.6-1.2c2.4,0,4.4,0.7,5.9,2c1.5,1.3,2.4,3.1,2.6,5.5h-4.4
				c-0.1-1.4-0.5-2.4-1.1-3c-0.7-0.6-1.6-0.9-3-0.9c-1.5,0-2.5,0.5-3.3,1.6s-1.1,2.7-1.1,4.8v1.6c0,2.3,0.3,4,1,5
				c0.7,1.1,1.8,1.6,3.3,1.6c1.3,0,2.4-0.3,3-0.9c0.7-0.6,1-1.6,1.1-2.9H121z"/>
			<path class="st1" d="M131.7,28.2h-3.5V36h-4.4V14.8h7.9c2.5,0,4.4,0.6,5.8,1.7c1.4,1.1,2,2.7,2,4.7c0,1.4-0.3,2.6-0.9,3.6
				c-0.6,1-1.6,1.7-2.8,2.3l4.6,8.6V36h-4.7L131.7,28.2z M128.2,24.7h3.5c1.1,0,1.9-0.3,2.5-0.8s0.9-1.3,0.9-2.3
				c0-1-0.3-1.8-0.9-2.4c-0.6-0.6-1.4-0.9-2.6-0.9h-3.5V24.7z"/>
			<path class="st1" d="M160.2,25.9c0,2.1-0.4,3.9-1.1,5.5c-0.7,1.6-1.8,2.8-3.2,3.6c-1.4,0.9-2.9,1.3-4.7,1.3
				c-1.8,0-3.3-0.4-4.7-1.3c-1.4-0.8-2.4-2-3.2-3.6c-0.8-1.6-1.1-3.4-1.1-5.4v-1c0-2.1,0.4-3.9,1.1-5.5c0.8-1.6,1.8-2.8,3.2-3.6
				c1.4-0.8,2.9-1.3,4.7-1.3c1.8,0,3.3,0.4,4.7,1.3c1.4,0.8,2.4,2.1,3.2,3.6c0.8,1.6,1.1,3.4,1.1,5.5V25.9z M155.8,24.9
				c0-2.2-0.4-3.9-1.2-5.1s-1.9-1.7-3.4-1.7c-1.5,0-2.6,0.6-3.4,1.7c-0.8,1.1-1.2,2.8-1.2,5v1c0,2.2,0.4,3.8,1.2,5
				c0.8,1.2,1.9,1.8,3.4,1.8c1.5,0,2.6-0.6,3.4-1.7c0.8-1.1,1.2-2.8,1.2-5V24.9z"/>
		</g>
		<path class="st1" d="M204.3,10.5l1.1-1l0.6,0.6c0.3,0.3,0.8,0.3,1.1,0c0.3-0.3,0.3-0.8,0-1.1c0,0,0,0,0,0l-1.1-1.1l0,0l-1.1-1.2
			c-0.3-0.3-0.8-0.3-1.1,0c-0.3,0.3-0.3,0.8,0,1.1l0.6,0.6l-1.2,1.2c-3.1-2.3-6.9-3.7-10.8-3.8V4h2c1.1,0,2-0.9,2-2s-0.9-2-2-2h-5.7
			c-1.1,0-2,0.9-2,2s0.9,2,2,2h2v1.7c-4.3,0.2-8.4,1.8-11.6,4.5l-1.9-1.9l0.6-0.6c0.3-0.3,0.2-0.9-0.1-1.1c-0.3-0.2-0.7-0.2-1,0
			l-1.1,1.1l0,0l-1.1,1.1c-0.3,0.3-0.3,0.8,0,1.1c0.2,0.1,0.4,0.2,0.6,0.2c0.2,0,0.4-0.1,0.6-0.2l0.6-0.6l1.8,1.8
			c-7.6,7.5-7.6,19.8-0.1,27.4s19.8,7.6,27.4,0.1c7.6-7.5,7.6-19.8,0.1-27.4C204.9,11.1,204.6,10.8,204.3,10.5L204.3,10.5z M188.3,2
			c0-0.2,0.2-0.4,0.4-0.4h5.7c0.2,0,0.4,0.2,0.4,0.4s-0.2,0.4-0.4,0.4h-5.7C188.4,2.4,188.3,2.2,188.3,2z M191.5,42.8
			c-9.8,0-17.8-8-17.8-17.8c0-9.8,8-17.8,17.8-17.8c9.8,0,17.8,7.9,17.8,17.8C209.3,34.8,201.3,42.8,191.5,42.8
			C191.5,42.8,191.5,42.8,191.5,42.8L191.5,42.8z"/>
		<path class="st1" d="M199,36.1c-0.7,0.5-1.4,0.9-2.2,1.2c-0.4,0.2-0.6,0.7-0.4,1.1c0.1,0.3,0.4,0.5,0.7,0.5c0.1,0,0.2,0,0.3-0.1
			c0.8-0.4,1.7-0.8,2.4-1.3c0.3-0.3,0.4-0.8,0.1-1.1C199.8,36,199.4,35.9,199,36.1L199,36.1z"/>
		<path class="st1" d="M191.5,10c-8.3,0-15,6.7-15,15s6.7,15,15,15c0.4,0,0.8-0.3,0.9-0.7c0-0.4-0.3-0.8-0.7-0.9c-0.1,0-0.1,0-0.2,0
			c-7.4,0-13.4-6-13.4-13.4s6-13.4,13.4-13.4c7.4,0,13.4,6,13.4,13.4c0,0,0,0,0,0c0,3-1,5.9-2.8,8.2c-0.3,0.4-0.2,0.9,0.1,1.1
			c0.3,0.3,0.9,0.2,1.1-0.1c0,0,0,0,0,0c2.1-2.6,3.2-5.9,3.2-9.2C206.5,16.7,199.8,10,191.5,10z"/>
		<path class="st1" d="M191.1,21.8c-1.6,0-2.8,1.3-2.8,2.8c0,0.4,0.1,0.9,0.3,1.3l-4.4,3.9c-0.3,0.3-0.3,0.8,0,1.1
			c0.1,0.2,0.4,0.3,0.6,0.3c0.2,0,0.4-0.1,0.5-0.2l4.4-4c1.4,0.8,3.1,0.3,3.8-1.1s0.3-3.1-1.1-3.8C192.1,21.9,191.6,21.8,191.1,21.8
			L191.1,21.8z M191.1,25.8c-0.7,0-1.2-0.5-1.2-1.2c0-0.7,0.5-1.2,1.2-1.2c0.7,0,1.2,0.5,1.2,1.2c0,0,0,0,0,0
			C192.3,25.3,191.8,25.8,191.1,25.8C191.1,25.8,191.1,25.8,191.1,25.8L191.1,25.8z"/>
	</g>
</g>
</svg>
